<?xml version="1.0" standalone="no"?>
<!DOCTYPE svg PUBLIC "-//W3C//DTD SVG 20010904//EN"
 "http://www.w3.org/TR/2001/REC-SVG-20010904/DTD/svg10.dtd">
<svg version="1.0" xmlns="http://www.w3.org/2000/svg"
 width="372.000000pt" height="372.000000pt" viewBox="0 0 372.000000 372.000000"
 preserveAspectRatio="xMidYMid meet">
<metadata>
Created by potrace 1.14, written by Peter Selinger 2001-2017
</metadata>
<g transform="translate(0.000000,372.000000) scale(0.100000,-0.100000)"
fill="#000000" stroke="none">
<path d="M1635 3710 c-260 -26 -630 -164 -813 -303 -31 -24 -79 -59 -107 -77
-66 -44 -211 -184 -243 -235 -14 -22 -51 -67 -82 -100 -57 -60 -176 -250 -225
-361 -35 -77 -79 -214 -93 -285 -6 -31 -19 -76 -30 -100 -29 -65 -37 -150 -37
-389 0 -199 11 -322 34 -390 4 -14 15 -50 24 -80 38 -130 52 -168 98 -264 104
-215 144 -281 256 -417 21 -26 62 -77 91 -113 30 -36 57 -66 61 -66 3 0 49
-36 101 -81 52 -44 104 -88 115 -97 31 -26 104 -72 113 -72 5 0 35 -17 68 -38
93 -60 299 -140 454 -176 41 -10 86 -22 100 -27 14 -5 93 -15 175 -22 210 -18
423 -4 570 38 33 10 76 21 95 25 96 22 318 114 410 170 41 25 92 54 112 65 20
10 77 53 125 95 49 41 102 86 118 100 40 34 150 160 210 240 26 36 53 70 59
75 21 19 62 91 126 220 36 72 70 134 77 138 7 4 13 17 13 27 0 10 11 54 24 97
49 156 76 333 82 548 4 140 3 214 -6 245 -6 25 -15 70 -20 100 -10 63 -23 114
-56 223 -13 43 -21 83 -18 88 3 6 -1 18 -9 27 -8 9 -43 73 -77 142 -76 152
-278 427 -397 540 -131 125 -298 239 -473 322 -149 71 -231 99 -405 139 -117
27 -151 31 -335 34 -113 2 -241 0 -285 -5z m-428 -1856 c-3 -3 -12 -4 -19 -1
-8 3 -5 6 6 6 11 1 17 -2 13 -5z"/>
</g>
</svg>
